<svg width="64" height="64" viewBox="0 0 64 64" fill="none" xmlns="http://www.w3.org/2000/svg">
<path d="M32 56C45.2548 56 56 45.2548 56 32C56 18.7452 45.2548 8 32 8C18.7452 8 8 18.7452 8 32C8 45.2548 18.7452 56 32 56Z" stroke="#E1E1E6" stroke-width="2" stroke-linecap="round" stroke-linejoin="round"/>
<path d="M32 40C37.5228 40 42 35.5228 42 30C42 24.4772 37.5228 20 32 20C26.4772 20 22 24.4772 22 30C22 35.5228 26.4772 40 32 40Z" stroke="#E1E1E6" stroke-width="2" stroke-linecap="round" stroke-linejoin="round"/>
<path d="M15.95 49.8499C17.4547 46.886 19.7508 44.3966 22.5838 42.6577C25.4168 40.9189 28.6759 39.9984 32 39.9984C35.324 39.9984 38.5831 40.9189 41.4161 42.6577C44.2491 44.3966 46.5452 46.886 48.0499 49.8499" stroke="#E1E1E6" stroke-width="2" stroke-linecap="round" stroke-linejoin="round"/>
</svg>
